<?xml version="1.0" encoding="UTF-8"?>
<svg width="24px" height="24px" viewBox="0 0 24 24" version="1.1" xmlns="http://www.w3.org/2000/svg" xmlns:xlink="http://www.w3.org/1999/xlink">
    <title>Snapp! Pay Logotype Icons / Pay BG Color / Round / 24x24</title>
    <defs>
        <polygon id="path-1" points="0 0 3.11956309 0 3.11956309 4.48359359 0 4.48359359"></polygon>
    </defs>
    <g id="V-4" stroke="none" stroke-width="1" fill="none" fill-rule="evenodd">
        <g id="Snapp!-Pay-Logotype-Icons-/-Pay-BG-Color-/-Round-/-24x24">
            <path d="M6.13737343,0.49944988 L6.63414037,0.421012103 C10.1893424,-0.140337368 13.8106294,-0.140337368 17.3658879,0.421012103 L17.8626548,0.49944988 C20.7654795,0.957791519 23.0421915,3.23454305 23.5005501,6.13737343 L23.5790048,6.63414037 C24.1403317,10.1893424 24.1403317,13.8106294 23.5790048,17.3658879 L23.5005501,17.8626548 C23.0421915,20.7654795 20.7654795,23.0421915 17.8626548,23.5005501 L17.3658879,23.5790048 C13.8106294,24.1403317 10.1893424,24.1403317 6.63414037,23.5790048 L6.13737343,23.5005501 C3.23454305,23.0421915 0.957791519,20.7654795 0.49944988,17.8626548 L0.421012103,17.3658879 C-0.140337368,13.8106294 -0.140337368,10.1893424 0.421012103,6.63414037 L0.49944988,6.13737343 C0.957791519,3.23454305 3.23454305,0.957791519 6.13737343,0.49944988 Z" id="Path" fill="#008EFA"></path>
            <g id="Group-4-Copy-3" transform="translate(2.330097, 6.291262)">
                <g id="Group-2">
                    <g id="Group-3">
                        <mask id="mask-2" fill="white">
                            <use xlink:href="#path-1"></use>
                        </mask>
                        <g id="Clip-2"></g>
                        <path d="M2.68248736,4.08259379 C3.0187585,3.79458194 3.11956309,3.35981464 3.11956309,2.9363891 C3.11956309,2.24737745 2.6656866,1.94819569 2.07714814,1.77308586 L1.79690797,1.6884523 C1.6063856,1.62624449 1.30934467,1.53026918 1.30934467,1.28186755 C1.30934467,1.04463583 1.57832747,0.926148855 1.78010721,0.926148855 C1.87971783,0.926148855 1.97779336,0.941528963 2.07194587,0.969625585 C2.35278302,1.05331399 2.65289414,0.925289631 2.78653271,0.662968573 L2.94277129,0.356311561 C2.94456223,0.352874666 2.9431977,0.348578546 2.93987166,0.346688253 C2.56479673,0.134116259 2.04678737,-8.5922391e-06 1.62310108,-8.5922391e-06 C0.776837185,-8.5922391e-06 0.165869279,0.564673358 0.165869279,1.42870892 C0.165869279,2.25304833 0.619916339,2.43382904 1.30934467,2.63136462 C1.54472594,2.69915738 1.97625827,2.80647445 1.97625827,3.11708389 C1.97625827,3.41626565 1.70164679,3.54618031 1.44375078,3.54618031 C1.06824943,3.54618031 0.743235656,3.34855881 0.468624174,3.10582806 L0.000846540976,3.99220344 C-0.000859120403,3.99546849 7.89933552e-05,3.99950684 0.00306390077,4.0016549 C0.433572833,4.30427356 0.952776157,4.48359359 1.48306628,4.48359359 C1.90896993,4.48359359 2.35175962,4.36493477 2.68248736,4.08259379" id="Fill-1" fill="#FFFFFF" mask="url(#mask-2)"></path>
                    </g>
                    <path d="M4.33583611,3.75877808 L4.33583611,2.86862211 C4.33583611,2.50714662 4.45361202,2.1966231 4.86834359,2.1966231 C5.37279294,2.1966231 5.32793405,2.68217053 5.32793405,2.95892655 L5.32793405,4.3632421 C5.32793405,4.36736637 5.3311748,4.37063142 5.33518311,4.37063142 L5.7407041,4.37063142 C6.07603713,4.37063142 6.34791955,4.09671084 6.34791955,3.75877808 L6.34791955,2.58061026 C6.34791955,1.86908695 6.03970654,1.37778272 5.26635967,1.37778272 C4.86962283,1.37778272 4.58426569,1.49575416 4.34931083,1.84331023 C4.3479463,1.84528644 4.34572894,1.84648936 4.34325573,1.84648936 L4.34317045,1.84648936 C4.33916215,1.84648936 4.33583611,1.84331023 4.33583611,1.83918595 L4.33583611,1.48106143 C4.33583611,1.477109 4.33259535,1.47375803 4.32858705,1.47375803 L3.32309966,1.47375803 C3.31900607,1.47375803 3.3158506,1.477109 3.3158506,1.48106143 L3.3158506,4.3632421 C3.3158506,4.36736637 3.31900607,4.37063142 3.32309966,4.37063142 L3.72862066,4.37063142 C4.06403897,4.37063142 4.33583611,4.09671084 4.33583611,3.75877808" id="Fill-4" fill="#FFFFFF"></path>
                    <path d="M7.59527825,2.9249872 C7.59527825,2.56935443 7.8362882,2.27000082 8.25101976,2.27000082 C8.66583661,2.27000082 8.90684656,2.56935443 8.90684656,2.9249872 C8.90684656,3.29204765 8.66583661,3.57438863 8.25101976,3.57438863 C7.8362882,3.57438863 7.59527825,3.29204765 7.59527825,2.9249872 M8.85985559,4.05211712 C8.86113484,4.05005498 8.86343748,4.04876615 8.86591069,4.04876615 C8.869919,4.04876615 8.87315975,4.0520312 8.87315975,4.05606955 L8.87315975,4.3632421 C8.87315975,4.36736637 8.87648579,4.37063142 8.88040881,4.37063142 L9.28592981,4.37063142 C9.62134812,4.37063142 9.89323054,4.09671084 9.89323054,3.75877808 L9.89323054,1.48106143 C9.89323054,1.477109 9.89007507,1.47375803 9.88598148,1.47375803 L8.88040881,1.47375803 C8.87648579,1.47375803 8.87315975,1.477109 8.87315975,1.48106143 L8.87315975,1.7365087 C8.87315975,1.74329657 8.86488729,1.74638977 8.86045258,1.74132035 C8.64647736,1.49721484 8.30619791,1.37778272 7.98195168,1.37778272 C7.13005911,1.37778272 6.54160593,2.08930603 6.54160593,2.91940225 C6.54160593,3.74949846 7.14131647,4.46660673 7.99329433,4.46660673 C8.32820094,4.46660673 8.67990832,4.33772315 8.85985559,4.05211712" id="Fill-6" fill="#FFFFFF"></path>
                    <path d="M11.8474409,3.57443159 C11.432624,3.57443159 11.1916141,3.29200469 11.1916141,2.92503016 C11.1916141,2.56931147 11.432624,2.27004378 11.8474409,2.27004378 C12.2621725,2.27004378 12.5031824,2.56931147 12.5031824,2.92503016 C12.5031824,3.29200469 12.2621725,3.57443159 11.8474409,3.57443159 M12.1052516,1.37782568 C11.7702597,1.37782568 11.4240105,1.51229422 11.2386903,1.79807209 C11.2373258,1.8000483 11.2349379,1.80133714 11.2326353,1.80133714 L11.23255,1.80133714 C11.2285417,1.80133714 11.2253009,1.79807209 11.2253009,1.79403374 L11.2253009,1.47380099 L10.2053154,1.47380099 L10.2053154,5.59223301 L10.6180002,5.59223301 C10.9534185,5.59223301 11.2253009,5.31831243 11.2253009,4.98046559 L11.2253009,4.09641011 C11.2253009,4.09555089 11.2263243,4.09512128 11.2269213,4.09589458 C11.4455018,4.34859233 11.7865488,4.46656377 12.116509,4.46656377 C12.9684016,4.46656377 13.5568547,3.76638221 13.5568547,2.93070104 C13.5568547,2.10060483 12.9627729,1.37782568 12.1052516,1.37782568" id="Fill-8" fill="#FFFFFF"></path>
                    <path d="M15.3896049,3.57443159 C14.9747881,3.57443159 14.7338634,3.29200469 14.7338634,2.92503016 C14.7338634,2.56931147 14.9747881,2.27004378 15.3896049,2.27004378 C15.8043365,2.27004378 16.0454317,2.56931147 16.0454317,2.92503016 C16.0454317,3.29200469 15.8043365,3.57443159 15.3896049,3.57443159 M15.6474157,1.37782568 C15.3124238,1.37782568 14.9662598,1.51229422 14.7808544,1.79807209 C14.7794899,1.8000483 14.7772725,1.80133714 14.7747993,1.80133714 L14.774714,1.80133714 C14.7707057,1.80133714 14.767465,1.79807209 14.767465,1.79403374 L14.767465,1.48110439 C14.767465,1.47715196 14.7642242,1.47380099 14.7602159,1.47380099 L13.7547285,1.47380099 C13.7506349,1.47380099 13.7474794,1.47715196 13.7474794,1.48110439 L13.7474794,5.58492961 C13.7474794,5.58896796 13.7506349,5.59223301 13.7547285,5.59223301 L14.1601642,5.59223301 C14.4955825,5.59223301 14.767465,5.31831243 14.767465,4.98046559 L14.767465,4.11316498 C14.767465,4.10637711 14.7757374,4.10336983 14.7800868,4.10843925 C14.999179,4.35254476 15.3342562,4.46656377 15.658673,4.46656377 C16.5105656,4.46656377 17.0990188,3.76638221 17.0990188,2.93070104 C17.0990188,2.10060483 16.5049369,1.37782568 15.6474157,1.37782568" id="Fill-10" fill="#FFFFFF"></path>
                    <path d="M18.292615,0.113005128 L17.6013105,2.78768322 L18.1760331,2.78768322 C18.4541412,2.78768322 18.6970273,2.59813843 18.766533,2.32679552 L19.3398058,0.113005128 L18.292615,0.113005128 Z" id="Fill-12" fill="#FFFFFF"></path>
                    <path d="M17.9462208,3.16598232 C17.5899934,3.16598232 17.3007985,3.45734515 17.3007985,3.81615705 C17.3007985,4.17496895 17.5899934,4.4664177 17.9462208,4.4664177 C18.3023629,4.4664177 18.5915578,4.17496895 18.5915578,3.81615705 C18.5915578,3.45734515 18.3023629,3.16598232 17.9462208,3.16598232" id="Fill-14" fill="#FFFFFF"></path>
                    <polygon id="Fill-16" fill="#FFFFFF" points="17.6294539 0.166766768 17.6308184 0.166766768 17.7108992 0.391625664 17.746377 0.391625664 17.826543 0.166766768 17.8279929 0.166766768 17.8279929 0.391625664 17.8882027 0.391625664 17.8882027 0.112979351 17.79098 0.112979351 17.7287234 0.277864419 17.6664667 0.112979351 17.5691587 0.112979351 17.5691587 0.391625664 17.6294539 0.391625664"></polygon>
                    <polygon id="Fill-18" fill="#FFFFFF" points="17.3850667 0.391608479 17.4514169 0.391608479 17.4514169 0.166749583 17.5355913 0.166749583 17.5355913 0.112962167 17.300807 0.112962167 17.300807 0.166749583 17.3850667 0.166749583"></polygon>
                </g>
                <g id="Group" transform="translate(0.000000, 5.825243)" fill="#FFFFFF">
                    <path d="M1.46879274,1.99559959 L1.10291833,1.99559959 L1.10291833,0.911323811 L1.46879274,0.911323811 C1.87395338,0.911323811 2.0764483,1.09206562 2.0764483,1.4534617 C2.0764483,1.81494531 1.87395338,1.99559959 1.46879274,1.99559959 M1.75583846,0 L0,0 L0,4.3487441 L1.10291833,4.3487441 L1.10291833,2.90683587 L1.75583846,2.90683587 C2.23214135,2.90683587 2.59716171,2.78001027 2.85038711,2.526184 C3.10361251,2.27244527 3.23026792,1.91481281 3.23026792,1.4534617 C3.23026792,0.992023057 3.10361251,0.634478132 2.85038711,0.380651868 C2.59716171,0.126913132 2.23214135,0 1.75583846,0" id="Fill-20"></path>
                    <path d="M5.74867781,3.1317697 C5.71289317,3.21255648 5.66600591,3.28371536 5.6079306,3.34524634 C5.5497699,3.40677733 5.48033575,3.45474174 5.39971356,3.48931463 C5.31900597,3.52397504 5.23368652,3.54130525 5.1437552,3.54130525 C5.04980986,3.54130525 4.9626115,3.52397504 4.88198932,3.48931463 C4.80128173,3.45474174 4.73193298,3.40677733 4.67377228,3.34524634 C4.61561157,3.28371536 4.56966375,3.21159369 4.53584343,3.12888134 C4.50210851,3.04625651 4.48519835,2.95689216 4.48519835,2.86070076 C4.48519835,2.76844804 4.50210851,2.68284732 4.53584343,2.60407365 C4.56966375,2.52529999 4.61561157,2.4551039 4.67377228,2.39357291 C4.73193298,2.33212945 4.80128173,2.28398998 4.88198932,2.24932957 C4.9626115,2.21475668 5.04980986,2.19742648 5.1437552,2.19742648 C5.23368652,2.19742648 5.31900597,2.21475668 5.39971356,2.24932957 C5.48033575,2.28398998 5.5497699,2.33212945 5.6079306,2.39357291 C5.66600591,2.4551039 5.71289317,2.52713804 5.74867781,2.60985039 C5.78429163,2.69256274 5.80205584,2.78000151 5.80205584,2.87225423 C5.80205584,2.96450695 5.78429163,3.05107046 5.74867781,3.1317697 L5.74867781,3.1317697 Z M5.76832093,1.68417227 C5.53192028,1.42658237 5.23368652,1.29774366 4.87361964,1.29774366 C4.65976588,1.29774366 4.46453037,1.33905607 4.28825475,1.4216809 C4.11189372,1.50448078 3.95995848,1.61695207 3.83244903,1.7591823 C3.70476876,1.90141254 3.60535751,2.06762498 3.53412986,2.25799467 C3.4628168,2.44827684 3.42720298,2.64923722 3.42720298,2.86070076 C3.42720298,3.08765645 3.46384166,3.29719441 3.53686281,3.48931463 C3.61014018,3.68160991 3.7123698,3.84896019 3.84372247,3.99119042 C3.97490433,4.13342065 4.12880388,4.24396637 4.30516491,4.32274004 C4.48135513,4.4015137 4.67471173,4.44098806 4.88480768,4.44098806 C5.2562334,4.44098806 5.55070935,4.30068341 5.76832093,4.01989905 L5.76832093,4.34873535 L6.79258138,4.34873535 L6.79258138,1.38999638 L5.76832093,1.38999638 L5.76832093,1.68417227 Z" id="Fill-22"></path>
                    <polygon id="Fill-24" points="9.03232376 2.90685338 8.26128871 1.38993511 7.0795417 1.38993511 8.47514247 3.94500279 7.49033906 5.82524272 8.63279984 5.82524272 10.9514563 1.38993511 9.78081193 1.38993511"></polygon>
                </g>
            </g>
        </g>
    </g>
</svg>